<svg width="426" height="76" viewBox="0 0 426 76" fill="none" xmlns="http://www.w3.org/2000/svg">
<g clip-path="url(#clip0_83_186)">
<path d="M422.22 0.08L422.2 0.15C420.42 7.9 414.43 12.67 404.88 13.95H404.8V16.63H404.9C409.39 16.3 415.9 15.38 420.54 11.11L421.4 10.32V74.35H425.06V0.08H422.22ZM374.68 23.64C374.25 23.61 373.82 23.6 373.4 23.6C369.46 23.6 366.2 24.83 363.72 27.25C359.14 31.72 357.07 40.18 357.56 52.4C357.88 60.43 359.32 71.46 368.11 74.62C373.56 76.58 379.92 75.37 383.58 71.7C388.78 66.48 389.48 57.01 389.55 50.34C389.63 43.14 388.86 37.57 387.19 33.32C384.82 27.27 380.61 24.01 374.68 23.63V23.64ZM385.69 53.23C385.34 60.88 383.87 71.18 375.21 72.25C374.6 72.33 374.01 72.36 373.44 72.36C370.78 72.36 368.53 71.55 366.74 69.93C361.56 65.26 361.17 55.1 361.32 47.87C361.45 41.54 362.13 33.75 366.23 29.63C368.76 27.09 373.02 26.13 376.84 27.24C383.41 29.16 386.39 37.91 385.69 53.23ZM395.6 74.44H401.69V68.35H395.6V74.44ZM52.35 41.05C59.5 37.8 65.03 34.3 70.64 28.86L68.2 27.15C63.08 32.19 57.88 35.85 51.37 38.86C48.77 33.25 47.14 27.48 45.84 21.47H65.51V18.46H9.43V21.47H35.85C28.45 30.66 14.06 36.34 2.68 38.62L4.55 41.46C14.39 39.1 23.82 34.96 31.86 28.94C33.73 30.97 34.95 32.44 36.49 34.71C27.71 43.98 15.27 48.61 3.08 51.62L4.71 54.22C15.93 51.38 30.07 45.68 38.12 37.15C39.58 39.75 40.56 42.27 41.45 45.2C30.97 56.58 14.96 62.27 0 64.62L1.46 67.55C9.34 66.17 16.99 63.89 24.22 60.56C30.32 57.71 37.55 53.49 42.19 48.69C42.76 51.62 43.08 54.71 43.08 57.71C43.08 62.67 42.92 70.64 36.66 70.47L26.34 70.23L27.15 74.21H35.52C45.03 74.21 46.09 65.67 46.09 58.2C46.09 46.09 42.76 35.77 34.14 27.15C36.25 25.36 37.96 23.66 39.67 21.46H43.25C47.48 42.03 55.28 55.52 72.11 68.44L74.47 65.76C64.88 58.93 57.89 51.53 52.36 41.05H52.35ZM5.61 10.4H69.5V23.65H72.67V7.48H39.18V0H35.93V7.48H2.44V23.66H5.61V10.41V10.4ZM141.03 2.76H86.89V44.87H141.03V2.76ZM137.53 41.78H90.3V31.05H137.53V41.78ZM137.53 28.13H90.3V18.29H137.53V28.13ZM137.53 15.28H90.3V5.69H137.53V15.28ZM77.05 55.93H150.86V52.84H77.05V55.93ZM77.7 71.86L79.73 74.95C86.56 72.92 97.21 66.82 101.76 61.37L99.32 58.85C94.36 64.7 84.93 69.82 77.7 71.86ZM125.42 60.88C132.82 67.46 139.56 71.12 148.83 74.46L150.7 71.29C142.33 68.77 134.52 64.46 127.94 58.69L125.42 60.88ZM219.7 10.4H283.59V23.65H286.76V7.48H253.27V0H250.02V7.48H216.53V23.66H219.7V10.41V10.4ZM266.44 41.05C273.59 37.8 279.12 34.3 284.73 28.86L282.29 27.15C277.17 32.19 271.97 35.85 265.46 38.86C262.86 33.25 261.23 27.48 259.93 21.47H279.6V18.46H223.51V21.47H249.93C242.53 30.66 228.14 36.34 216.76 38.62L218.63 41.46C228.47 39.1 237.9 34.96 245.94 28.94C247.81 30.97 249.03 32.44 250.57 34.71C241.79 43.98 229.35 48.61 217.16 51.62L218.79 54.22C230.01 51.38 244.15 45.68 252.2 37.15C253.66 39.75 254.64 42.27 255.53 45.2C245.04 56.58 229.03 62.27 214.07 64.63L215.53 67.56C223.41 66.18 231.06 63.9 238.29 60.57C244.39 57.72 251.62 53.5 256.26 48.7C256.83 51.63 257.15 54.72 257.15 57.72C257.15 62.68 256.99 70.65 250.73 70.48L240.41 70.24L241.22 74.22H249.59C259.1 74.22 260.16 65.68 260.16 58.21C260.16 46.1 256.83 35.78 248.21 27.16C250.32 25.37 252.03 23.67 253.74 21.47H257.32C261.55 42.04 269.35 55.53 286.18 68.45L288.54 65.77C278.95 58.94 271.96 51.54 266.43 41.06L266.44 41.05ZM183.3 23.6C167.39 23.6 155.39 35.41 155.39 51.08C155.39 57.16 157.32 62.93 160.69 66.92C162.85 69.5 164.93 70.75 167.06 70.75C170.74 70.75 173.32 66.52 174.95 63.33C181.03 51.57 183.34 37.78 184.68 27.09L184.73 26.72L185.1 26.75C196.81 27.57 204.98 36.27 204.98 47.91C204.98 58.64 198.03 67.34 186.39 71.2L188.34 74.4C193.14 72.68 196.96 70.47 200 67.65C205.5 62.58 208.65 55.41 208.65 47.97C208.65 33.85 197.99 23.6 183.31 23.6H183.3ZM181.11 27.32C179.63 39.44 177.4 48.85 174.07 56.96C172.17 61.6 169.38 67.13 166.94 67.13C166.06 67.13 165.11 66.6 164.03 65.52C160.77 62.32 158.83 56.96 158.83 51.2C158.83 38.4 168.02 28.17 180.69 26.88L181.18 26.83L181.12 27.32H181.11ZM346.37 68.68L314.59 2.66H309.77V74.39H313.27L313.22 7.69L313.81 8.88L345.05 74.39H349.87V2.66H346.32L346.37 68.68Z" fill="#231815"/>
</g>
<defs>
<clipPath id="clip0_83_186">
<rect width="425.06" height="75.55" fill="white"/>
</clipPath>
</defs>
</svg>
